<svg xmlns="http://www.w3.org/2000/svg" xmlns:svg="http://www.w3.org/2000/svg" id="svg4186" width="356.545" height="257.124" version="1.1" viewBox="0 -43 94.336 68.031"><metadata id="metadata4196"/><defs id="defs4194"><marker id="marker4602" orient="auto" refX="0" refY="0" style="overflow:visible"><path id="path4604" style="fill:red;fill-opacity:1;fill-rule:evenodd;stroke:red;stroke-width:.625;stroke-linejoin:round;stroke-opacity:1" d="M 8.7185878,4.0337352 -2.2072895,0.01601326 8.7185884,-4.0017078 c -1.7454984,2.3720609 -1.7354408,5.6174519 -6e-7,8.035443 z" transform="scale(-0.6,-0.6)"/></marker><marker id="Arrow2Lend" orient="auto" refX="0" refY="0" style="overflow:visible"><path id="path4230" style="fill:red;fill-opacity:1;fill-rule:evenodd;stroke:red;stroke-width:.625;stroke-linejoin:round;stroke-opacity:1" d="M 8.7185878,4.0337352 -2.2072895,0.01601326 8.7185884,-4.0017078 c -1.7454984,2.3720609 -1.7354408,5.6174519 -6e-7,8.035443 z" transform="matrix(-1.1,0,0,-1.1,-1.1,0)"/></marker><marker id="marker4596" orient="auto" refX="0" refY="0" style="overflow:visible"><path id="path4598" style="fill:red;fill-opacity:1;fill-rule:evenodd;stroke:red;stroke-width:.625;stroke-linejoin:round;stroke-opacity:1" d="M 8.7185878,4.0337352 -2.2072895,0.01601326 8.7185884,-4.0017078 c -1.7454984,2.3720609 -1.7354408,5.6174519 -6e-7,8.035443 z" transform="scale(-0.6,-0.6)"/></marker><marker id="Arrow2Mstart" orient="auto" refX="0" refY="0" style="overflow:visible"><path id="path4233" style="fill:red;fill-opacity:1;fill-rule:evenodd;stroke:red;stroke-width:.625;stroke-linejoin:round;stroke-opacity:1" d="M 8.7185878,4.0337352 -2.2072895,0.01601326 8.7185884,-4.0017078 c -1.7454984,2.3720609 -1.7354408,5.6174519 -6e-7,8.035443 z" transform="scale(0.6,0.6)"/></marker><marker id="Arrow1Mstart" orient="auto" refX="0" refY="0" style="overflow:visible"><path id="path4215" d="M 0,0 5,-5 -12.5,0 5,5 0,0 Z" style="fill:red;fill-opacity:1;fill-rule:evenodd;stroke:red;stroke-width:1pt;stroke-opacity:1" transform="matrix(0.4,0,0,0.4,4,0)"/></marker><marker id="Arrow2Mend" orient="auto" refX="0" refY="0" style="overflow:visible"><path id="path4236" style="fill:red;fill-opacity:1;fill-rule:evenodd;stroke:red;stroke-width:.625;stroke-linejoin:round;stroke-opacity:1" d="M 8.7185878,4.0337352 -2.2072895,0.01601326 8.7185884,-4.0017078 c -1.7454984,2.3720609 -1.7354408,5.6174519 -6e-7,8.035443 z" transform="scale(-0.6,-0.6)"/></marker><marker id="Arrow1Mend" orient="auto" refX="0" refY="0" style="overflow:visible"><path id="path4218" d="M 0,0 5,-5 -12.5,0 5,5 0,0 Z" style="fill:red;fill-opacity:1;fill-rule:evenodd;stroke:red;stroke-width:1pt;stroke-opacity:1" transform="matrix(-0.4,0,0,-0.4,-4,0)"/></marker><marker id="Arrow1Lend" orient="auto" refX="0" refY="0" style="overflow:visible"><path id="path4212" d="M 0,0 5,-5 -12.5,0 5,5 0,0 Z" style="fill:red;fill-opacity:1;fill-rule:evenodd;stroke:red;stroke-width:1pt;stroke-opacity:1" transform="matrix(-0.8,0,0,-0.8,-10,0)"/></marker><marker id="Arrow1Lstart" orient="auto" refX="0" refY="0" style="overflow:visible"><path id="path4209" d="M 0,0 5,-5 -12.5,0 5,5 0,0 Z" style="fill:red;fill-opacity:1;fill-rule:evenodd;stroke:red;stroke-width:1pt;stroke-opacity:1" transform="matrix(0.8,0,0,0.8,10,0)"/></marker><marker id="Arrow2Mend-3" orient="auto" refX="0" refY="0" style="overflow:visible"><path id="path4236-6" style="fill:red;fill-opacity:1;fill-rule:evenodd;stroke:red;stroke-width:.625;stroke-linejoin:round;stroke-opacity:1" d="M 8.7185878,4.0337352 -2.2072895,0.01601326 8.7185884,-4.0017078 c -1.7454984,2.3720609 -1.7354408,5.6174519 -6e-7,8.035443 z" transform="scale(-0.6,-0.6)"/></marker><marker id="Arrow2Mend-3-5" orient="auto" refX="0" refY="0" style="overflow:visible"><path id="path4236-6-6" style="fill:red;fill-opacity:1;fill-rule:evenodd;stroke:red;stroke-width:.625;stroke-linejoin:round;stroke-opacity:1" d="M 8.7185878,4.0337352 -2.2072895,0.01601326 8.7185884,-4.0017078 c -1.7454984,2.3720609 -1.7354408,5.6174519 -6e-7,8.035443 z" transform="scale(-0.6,-0.6)"/></marker><marker id="Arrow2Mend-3-2" orient="auto" refX="0" refY="0" style="overflow:visible"><path id="path4236-6-7" style="fill:red;fill-opacity:1;fill-rule:evenodd;stroke:red;stroke-width:.625;stroke-linejoin:round;stroke-opacity:1" d="M 8.7185878,4.0337352 -2.2072895,0.01601326 8.7185884,-4.0017078 c -1.7454984,2.3720609 -1.7354408,5.6174519 -6e-7,8.035443 z" transform="scale(-0.6,-0.6)"/></marker><marker id="Arrow2Mend-3-2-0" orient="auto" refX="0" refY="0" style="overflow:visible"><path id="path4236-6-7-6" style="fill:red;fill-opacity:1;fill-rule:evenodd;stroke:red;stroke-width:.625;stroke-linejoin:round;stroke-opacity:1" d="M 8.7185878,4.0337352 -2.2072895,0.01601326 8.7185884,-4.0017078 c -1.7454984,2.3720609 -1.7354408,5.6174519 -6e-7,8.035443 z" transform="scale(-0.6,-0.6)"/></marker><marker id="Arrow2Mstart-8" orient="auto" refX="0" refY="0" style="overflow:visible"><path id="path4233-7" style="fill:red;fill-opacity:1;fill-rule:evenodd;stroke:red;stroke-width:.625;stroke-linejoin:round;stroke-opacity:1" d="M 8.7185878,4.0337352 -2.2072895,0.01601326 8.7185884,-4.0017078 c -1.7454984,2.3720609 -1.7354408,5.6174519 -6e-7,8.035443 z" transform="scale(0.6,0.6)"/></marker><marker id="marker4602-9" orient="auto" refX="0" refY="0" style="overflow:visible"><path id="path4604-2" style="fill:red;fill-opacity:1;fill-rule:evenodd;stroke:red;stroke-width:.625;stroke-linejoin:round;stroke-opacity:1" d="M 8.7185878,4.0337352 -2.2072895,0.01601326 8.7185884,-4.0017078 c -1.7454984,2.3720609 -1.7354408,5.6174519 -6e-7,8.035443 z" transform="scale(-0.6,-0.6)"/></marker></defs><title id="title4188">OpenSCAD Model</title><path id="path4190" d="m 74.983652,13.907631 -3.2,0 0,-15.000018 3.1997,0 -5e-4,-23.51 -0.0374,-0.4749 -0.1135,-0.473 -0.1862,-0.4494 -0.2542,-0.4148 -0.3159,-0.3699 -0.3699,-0.3159 -0.4147,-0.2542 -0.4495,-0.1862 -0.473,-0.1135 -0.4849,-0.0382 -47.80001,0 -0.48494,0.0382 -0.47301,0.1135 -0.44941,0.1862 -0.41477,0.2542 -0.369901,0.3159 -0.315918,0.3699 -0.254166,0.4148 -0.186157,0.4494 -0.113556,0.473 -0.03816,0.4749 0,23.51 3.2,0 0,15.000018 -3.2,0 0,1.399979 54,0 z" style="fill:#d3d3d3;stroke:#000;stroke-width:.2;stroke-miterlimit:4;stroke-dasharray:none"/><g id="layer1" transform="translate(20.983652,14.607613)"><text xml:space="preserve" style="font-style:normal;font-variant:normal;font-weight:500;font-stretch:normal;font-size:40px;line-height:125%;font-family:roboto;-inkscape-font-specification:'roboto Medium';letter-spacing:0;word-spacing:0;fill:#000;fill-opacity:1;stroke:none;stroke-width:1px;stroke-linecap:butt;stroke-linejoin:miter;stroke-opacity:1" id="text4199" x="-10.805" y="-47.138"><tspan id="tspan4201" x="-10.805" y="-47.138" style="font-style:normal;font-variant:normal;font-weight:500;font-stretch:normal;font-size:3.125px;font-family:roboto;-inkscape-font-specification:'roboto Medium';fill:red">radius=2.88-3.48mm</tspan></text><path style="fill:none;fill-rule:evenodd;stroke:red;stroke-width:.2;stroke-linecap:butt;stroke-linejoin:miter;stroke-miterlimit:4;stroke-dasharray:none;stroke-opacity:1;marker-end:url(#Arrow2Mend)" id="path4203" d="M -4.6429448,-46.077301 0,-42.190184"/><text xml:space="preserve" style="font-style:normal;font-variant:normal;font-weight:500;font-stretch:normal;font-size:40px;line-height:125%;font-family:roboto;-inkscape-font-specification:'roboto Medium';letter-spacing:0;word-spacing:0;fill:#000;fill-opacity:1;stroke:none;stroke-width:1px;stroke-linecap:butt;stroke-linejoin:miter;stroke-opacity:1" id="text4199-7" x="9.513" y="-9.475"><tspan id="tspan4201-5" x="9.513" y="-9.475" style="font-style:normal;font-variant:normal;font-weight:500;font-stretch:normal;font-size:3.125px;font-family:roboto;-inkscape-font-specification:'roboto Medium';fill:red">15mm</tspan></text><path style="fill:none;fill-rule:evenodd;stroke:red;stroke-width:.2;stroke-linecap:butt;stroke-linejoin:miter;stroke-miterlimit:4;stroke-dasharray:none;stroke-opacity:1;marker-end:url(#Arrow2Mend-3)" id="path4203-3" d="M 8.9804025,-10.222775 4.2294824,-9.7368848"/><text xml:space="preserve" style="font-style:normal;font-variant:normal;font-weight:500;font-stretch:normal;font-size:40px;line-height:125%;font-family:roboto;-inkscape-font-specification:'roboto Medium';letter-spacing:0;word-spacing:0;fill:#000;fill-opacity:1;stroke:none;stroke-width:1px;stroke-linecap:butt;stroke-linejoin:miter;stroke-opacity:1" id="text4199-7-2" x="1.407" y="-22.775"><tspan id="tspan4201-5-9" x="1.407" y="-22.775" style="font-style:normal;font-variant:normal;font-weight:500;font-stretch:normal;font-size:3.125px;font-family:roboto;-inkscape-font-specification:'roboto Medium';fill:red">3.2mm</tspan></text><path style="fill:none;fill-rule:evenodd;stroke:red;stroke-width:.2;stroke-linecap:butt;stroke-linejoin:miter;stroke-miterlimit:4;stroke-dasharray:none;stroke-opacity:1;marker-end:url(#Arrow2Mend-3-5)" id="path4203-3-1" d="m 4.615238,-22.071571 -2.6894652,5.334127"/><text xml:space="preserve" style="font-style:normal;font-variant:normal;font-weight:500;font-stretch:normal;font-size:40px;line-height:125%;font-family:roboto;-inkscape-font-specification:'roboto Medium';letter-spacing:0;word-spacing:0;fill:#000;fill-opacity:1;stroke:none;stroke-width:1px;stroke-linecap:butt;stroke-linejoin:miter;stroke-opacity:1" id="text4199-7-0" x="-16.24" y=".798"><tspan id="tspan4201-5-93" x="-16.24" y=".798" style="font-style:normal;font-variant:normal;font-weight:500;font-stretch:normal;font-size:3.125px;font-family:roboto;-inkscape-font-specification:'roboto Medium';fill:red">1.4mm</tspan></text><path style="fill:none;fill-rule:evenodd;stroke:red;stroke-width:.2;stroke-linecap:butt;stroke-linejoin:miter;stroke-miterlimit:4;stroke-dasharray:none;stroke-opacity:1;marker-end:url(#Arrow2Mend-3-2)" id="path4203-3-6" d="m -6.0280189,0.08860329 4.9264654,-0.1058239"/><path style="fill:none;fill-rule:evenodd;stroke:red;stroke-width:.2;stroke-linecap:butt;stroke-linejoin:miter;stroke-miterlimit:4;stroke-dasharray:none;stroke-opacity:1;marker-start:url(#Arrow2Mstart);marker-end:url(#marker4602)" id="path4203-3-6-2" d="M 53.924017,2.3068797 0.32806918,2.1247055"/><text xml:space="preserve" style="font-style:normal;font-variant:normal;font-weight:500;font-stretch:normal;font-size:40px;line-height:125%;font-family:roboto;-inkscape-font-specification:'roboto Medium';letter-spacing:0;word-spacing:0;fill:#000;fill-opacity:1;stroke:none;stroke-width:1px;stroke-linecap:butt;stroke-linejoin:miter;stroke-opacity:1" id="text4199-7-6" x="23.328" y="5.393"><tspan id="tspan4201-5-1" x="23.328" y="5.393" style="font-style:normal;font-variant:normal;font-weight:500;font-stretch:normal;font-size:3.125px;font-family:roboto;-inkscape-font-specification:'roboto Medium';fill:red">54mm</tspan></text><path style="fill:none;fill-rule:evenodd;stroke:red;stroke-width:.2;stroke-linecap:butt;stroke-linejoin:miter;stroke-miterlimit:4;stroke-dasharray:none;stroke-opacity:1;marker-start:url(#Arrow2Mstart-8);marker-end:url(#marker4602-9)" id="path4203-3-6-2-0" d="M 55.811042,0.62986637 56.271022,-42.155708"/><text xml:space="preserve" style="font-style:normal;font-variant:normal;font-weight:500;font-stretch:normal;font-size:40px;line-height:125%;font-family:roboto;-inkscape-font-specification:'roboto Medium';letter-spacing:0;word-spacing:0;fill:#000;fill-opacity:1;stroke:none;stroke-width:1px;stroke-linecap:butt;stroke-linejoin:miter;stroke-opacity:1" id="text4199-7-6-2" x="56.9" y="-20.182"><tspan x="56.9" y="-20.182" style="font-style:normal;font-variant:normal;font-weight:500;font-stretch:normal;font-size:3.125px;font-family:roboto;-inkscape-font-specification:'roboto Medium';fill:red" id="tspan4657">42.8mm</tspan></text><text xml:space="preserve" style="font-style:normal;font-variant:normal;font-weight:500;font-stretch:normal;font-size:40px;line-height:125%;font-family:roboto;-inkscape-font-specification:'roboto Medium';letter-spacing:0;word-spacing:0;fill:#000;fill-opacity:1;stroke:none;stroke-width:1px;stroke-linecap:butt;stroke-linejoin:miter;stroke-opacity:1" id="text4199-75" x="26.373" y="-50.264"><tspan id="tspan4201-9" x="26.373" y="-50.264" style="font-style:normal;font-variant:normal;font-weight:500;font-stretch:normal;font-size:3.125px;font-family:roboto;-inkscape-font-specification:'roboto Medium';fill:red">thickness=0.508-0.762mm</tspan><tspan x="26.373" y="-46.358" style="font-style:normal;font-variant:normal;font-weight:500;font-stretch:normal;font-size:3.125px;font-family:roboto;-inkscape-font-specification:'roboto Medium';fill:red" id="tspan4679"> (20-30 mil)</tspan></text></g></svg>